<svg width="64" height="64" viewBox="0 0 64 64" fill="none" xmlns="http://www.w3.org/2000/svg" role="img" aria-labelledby="faviconTitle faviconDesc">
  <title id="faviconTitle">EduVoice AI Favicon</title>
  <desc id="faviconDesc">Gradient orb with microphone and connected nodes representing voice-first learning.</desc>
  <defs>
    <linearGradient id="faviconGradient" x1="4" y1="4" x2="60" y2="60" gradientUnits="userSpaceOnUse">
      <stop offset="0" stop-color="#6366F1" />
      <stop offset="0.5" stop-color="#7C3AED" />
      <stop offset="1" stop-color="#0EA5E9" />
    </linearGradient>
  </defs>

  <rect x="4" y="4" width="56" height="56" rx="18" fill="url(#faviconGradient)" />

  <g transform="translate(16 16)">
    <rect x="10" y="6" width="20" height="26" rx="9" fill="#F8FAFC" opacity="0.92" />
    <rect x="15" y="30" width="10" height="8" rx="3.5" fill="#F8FAFC" opacity="0.85" />
    <path d="M10 20C10 25.5228 14.4772 30 20 30C25.5228 30 30 25.5228 30 20V16H26V20C26 23.3137 23.3137 26 20 26C16.6863 26 14 23.3137 14 20V16H10V20Z" fill="#E2E8F0" />
    <path d="M6 18C6 12.4772 10.4772 8 16 8" stroke="#C4B5FD" stroke-width="2" stroke-linecap="round" />
    <path d="M34 8C39.5228 8 44 12.4772 44 18" stroke="#67E8F9" stroke-width="2" stroke-linecap="round" />
    <circle cx="6" cy="18" r="3" fill="#A855F7" opacity="0.85" />
    <circle cx="44" cy="18" r="3" fill="#22D3EE" opacity="0.85" />
    <circle cx="16" cy="4" r="2.8" fill="#DDD6FE" />
    <circle cx="34" cy="4" r="2.8" fill="#67E8F9" />
  </g>
</svg>
