<svg xmlns="http://www.w3.org/2000/svg" width="64" height="64" viewBox="0 0 64 64" role="img" aria-labelledby="faviconTitle faviconDesc">
  <title id="faviconTitle">EduVoice AI Favicon</title>
  <desc id="faviconDesc">Gradient speech orb with microphone silhouette and neural wave.</desc>
  <defs>
    <linearGradient id="faviconGradient" x1="4" y1="4" x2="60" y2="60" gradientUnits="userSpaceOnUse">
      <stop offset="0" stop-color="#4C1D95" />
      <stop offset="0.4" stop-color="#7C3AED" />
      <stop offset="0.75" stop-color="#2563EB" />
      <stop offset="1" stop-color="#06B6D4" />
    </linearGradient>
    <radialGradient id="faviconGlow" cx="32" cy="32" r="30" gradientUnits="userSpaceOnUse">
      <stop offset="0" stop-color="#FFFFFF" stop-opacity="0.24" />
      <stop offset="1" stop-color="#FFFFFF" stop-opacity="0" />
    </radialGradient>
  </defs>

  <rect x="4" y="4" width="56" height="56" rx="18" fill="url(#faviconGradient)" />
  <rect x="4" y="4" width="56" height="56" rx="18" fill="url(#faviconGlow)" />

  <path d="M32 16c-6.627 0-12 5.373-12 12v8c0 6.627 5.373 12 12 12s12-5.373 12-12v-8c0-6.627-5.373-12-12-12Zm7 20c0 3.866-3.134 7-7 7s-7-3.134-7-7v-8c0-3.866 3.134-7 7-7s7 3.134 7 7v8Zm-9 16h4c3.866 0 7 3.134 7 7v1H24v-1c0-3.866 3.134-7 7-7Z" fill="#F8FAFC" opacity="0.95" />
  <rect x="28" y="42" width="8" height="6" rx="2.5" fill="#E2E8F0" opacity="0.88" />

  <path d="M14 30c0-8.284 6.716-15 15-15" stroke="#C084FC" stroke-width="2.5" stroke-linecap="round" />
  <path d="M50 30c0-8.284-6.716-15-15-15" stroke="#38BDF8" stroke-width="2.5" stroke-linecap="round" />
  <circle cx="13" cy="30" r="3.5" fill="#C084FC" />
  <circle cx="51" cy="30" r="3.5" fill="#38BDF8" />
  <path d="M17 44c7 5 14.5 7.5 23 7.5S56 49 63 44" stroke="#22D3EE" stroke-width="2" stroke-linecap="round" opacity="0.45" />
</svg>
